HIERARCHY
ROOT Hips
{
	OFFSET	0.00	0.00	0.00
	CHANNELS 6 Xposition Yposition Zposition Zrotation Xrotation Yrotation
	JOINT LeftUpLeg
	{
		OFFSET	 0.126116	-0.014019	-0.065224
		CHANNELS 3 Zrotation Xrotation Yrotation
		JOINT LeftLeg
		{
			OFFSET	 0.000000	 0.000000	 0.569914
			CHANNELS 3 Zrotation Xrotation Yrotation
			JOINT LeftFoot
			{
				OFFSET	 0.000000	 0.000000	 0.544423
				CHANNELS 3 Zrotation Xrotation Yrotation
				JOINT LeftToeBase
				{
					OFFSET	 0.000000	 0.000000	 0.207117
					CHANNELS 3 Zrotation Xrotation Yrotation
					End Site
					{
						OFFSET	 0.000000	 0.000000	 0.207117
					}
				}
			}
		}
	}
	JOINT RightUpLeg
	{
		OFFSET	-0.124023	-0.008373	-0.065224
		CHANNELS 3 Zrotation Xrotation Yrotation
		JOINT RightLeg
		{
			OFFSET	 0.000000	 0.000000	 0.570047
			CHANNELS 3 Zrotation Xrotation Yrotation
			JOINT RightFoot
			{
				OFFSET	 0.000000	 0.000000	 0.544354
				CHANNELS 3 Zrotation Xrotation Yrotation
				JOINT RightToeBase
				{
					OFFSET	 0.000000	 0.000000	 0.207540
					CHANNELS 3 Zrotation Xrotation Yrotation
					End Site
					{
						OFFSET	 0.000000	 0.000000	 0.207540
					}
				}
			}
		}
	}
	JOINT Spine
	{
		OFFSET	 0.000184	-0.007763	 0.117403
		CHANNELS 3 Zrotation Xrotation Yrotation
		JOINT Spine1
		{
			OFFSET	 0.000000	 0.000000	 0.137269
			CHANNELS 3 Zrotation Xrotation Yrotation
			JOINT Spine2
			{
				OFFSET	 0.000000	 0.000000	 0.156879
				CHANNELS 3 Zrotation Xrotation Yrotation
				JOINT LeftShoulder
				{
					OFFSET	 0.080501	-0.002496	 0.160144
					CHANNELS 3 Zrotation Xrotation Yrotation
					JOINT LeftArm
					{
						OFFSET	 0.000000	 0.000000	 0.164363
						CHANNELS 3 Zrotation Xrotation Yrotation
						JOINT LeftForeArm
						{
							OFFSET	 0.000000	 0.000000	 0.364576
							CHANNELS 3 Zrotation Xrotation Yrotation
							JOINT LeftHand
							{
								OFFSET	 0.000000	 0.000000	 0.360812
								CHANNELS 3 Zrotation Xrotation Yrotation
								JOINT LeftHandIndex1
								{
									OFFSET	 0.000000	 0.000000	 0.086006
									CHANNELS 3 Zrotation Xrotation Yrotation
									JOINT LeftHandIndex2
									{
										OFFSET	 0.000000	 0.000000	 0.047236
										CHANNELS 3 Zrotation Xrotation Yrotation
										JOINT LeftHandIndex3
										{
											OFFSET	-0.004284	-0.000551	 0.038166
											CHANNELS 3 Zrotation Xrotation Yrotation
											End Site
											{
												OFFSET	-0.004284	-0.000551	 0.038166
											}
										}
									}
								}
							}
						}
					}
				}
				JOINT Neck
				{
					OFFSET	 0.000000	 0.000000	 0.176489
					CHANNELS 3 Zrotation Xrotation Yrotation
					JOINT Head
					{
						OFFSET	 0.000000	-0.001747	 0.077940
						CHANNELS 3 Zrotation Xrotation Yrotation
						End Site
						{
							OFFSET	 0.000000	-0.001747	 0.077940
						}
					}
				}
				JOINT RightShoulder
				{
					OFFSET	-0.080363	 0.000306	 0.159706
					CHANNELS 3 Zrotation Xrotation Yrotation
					JOINT RightArm
					{
						OFFSET	 0.000000	 0.000000	 0.164196
						CHANNELS 3 Zrotation Xrotation Yrotation
						JOINT RightForeArm
						{
							OFFSET	 0.000000	 0.000000	 0.365611
							CHANNELS 3 Zrotation Xrotation Yrotation
							JOINT RightHand
							{
								OFFSET	 0.000000	 0.000000	 0.360648
								CHANNELS 3 Zrotation Xrotation Yrotation
								JOINT RightHandIndex1
								{
									OFFSET	 0.000000	 0.000000	 0.069977
									CHANNELS 3 Zrotation Xrotation Yrotation
									JOINT RightHandIndex2
									{
										OFFSET	 0.000000	 0.000000	 0.052305
										CHANNELS 3 Zrotation Xrotation Yrotation
										JOINT RightHandIndex3
										{
											OFFSET	 0.009002	-0.000782	 0.042196
											CHANNELS 3 Zrotation Xrotation Yrotation
											End Site
											{
												OFFSET	 0.009002	-0.000782	 0.042196
											}
										}
									}
								}
							}
						}
					}
				}
			}
		}
	}
}
MOTION
Frames:    10
Frame Time: 0.03333334
-0.042288	 0.261803	 0.986673	 2.520736	 33.843650	-7.337219	-27.031310	-86.349720	 154.820200	 9.051848	-77.015190	 9.230502	-57.294980	 83.726740	 63.046760	-2.385832	 28.452790	-0.000001	 91.258220	-76.222800	-96.819020	-24.564510	-79.987000	-19.144130	 83.304440	 79.650800	-75.727580	 2.384659	 28.388700	-0.000001	 0.258069	 15.822370	 0.585158	-2.078184	 23.769200	 1.728956	-3.812184	-1.908378	 3.208104	-98.934650	 68.313710	 157.323200	 8.257748	-4.025997	-41.796880	-5.747931	 9.526381	-29.575310	-32.495910	-39.274900	-22.511340	-2.027600	 6.559038	 9.033609	-5.188889	 0.308190	 3.541030	-5.234859	 0.342567	 0.430617	-0.059008	 14.985800	-5.017371	-2.785963	-24.017890	-2.357824	 97.291900	 64.505110	-159.637100	-5.598446	 4.380690	 54.858620	-6.373975	 0.618103	 25.815550	 14.597980	-38.519650	 17.649170	 1.803333	 3.979147	-15.098590	 4.898592	 3.004813	-9.310344	 5.224449	 0.395017	 2.014677
-0.042040	 0.260057	 0.995639	 2.318974	 32.945870	-6.812901	-25.655610	-84.472630	 156.444400	 8.117300	-75.916020	 8.280930	-55.810080	 83.441990	 61.393370	-2.385832	 28.452790	-0.000001	 83.413500	-76.390700	-104.773900	-23.011400	-78.823140	-17.547260	 81.037260	 79.829480	-73.270920	 2.384659	 28.388700	-0.000001	 0.449497	 16.017730	 0.464116	-1.722016	 24.500490	 1.312012	-3.904172	-3.110372	 2.889565	-98.446720	 68.815370	 158.091400	 7.975460	-1.897106	-42.908590	-5.387594	 9.482703	-30.106720	-33.456430	-39.545090	-23.443190	-2.027600	 6.559038	 9.033609	-5.188889	 0.308190	 3.541030	-5.234859	 0.342567	 0.430617	-0.547213	 10.705220	-3.990331	-2.998882	-19.773530	-2.613683	 97.036760	 64.099100	-160.642200	-6.142916	 4.039704	 55.490060	-5.925258	 0.855222	 26.346800	 14.920950	-38.248670	 19.074880	 1.803333	 3.979147	-15.098590	 4.898592	 3.004813	-9.310344	 5.224449	 0.395017	 2.014677
-0.041325	 0.258626	 1.006492	 2.033674	 31.831730	-6.195987	-23.988880	-82.230450	 158.338100	 7.221695	-74.543220	 7.365067	-54.051460	 83.134190	 59.400830	-2.385833	 28.452760	 0.000004	 73.874340	-76.202000	-114.456800	-21.583680	-77.344150	-16.058860	 78.436150	 79.975400	-70.444600	 2.384659	 28.388700	-0.000001	 0.534929	 16.269690	 0.358206	-1.417108	 25.105730	 0.969506	-4.006221	-4.487810	 2.507153	-97.622130	 69.977540	 158.937300	 8.161980	 1.000003	-44.209280	-4.911120	 9.346146	-30.486530	-34.828700	-39.807900	-25.045410	-2.027600	 6.559038	 9.033609	-5.188889	 0.308190	 3.541030	-5.234859	 0.342567	 0.430617	-0.907152	 5.378201	-2.861610	-3.254691	-14.588230	-3.022466	 96.710850	 64.295090	-161.295200	-6.846128	 4.847932	 55.753890	-6.044689	 0.820061	 27.030400	 14.895940	-37.866120	 19.981660	 1.803333	 3.979147	-15.098590	 4.898592	 3.004813	-9.310344	 5.224449	 0.395017	 2.014677
-0.039910	 0.257825	 1.019495	 1.731875	 30.488500	-5.484581	-22.387930	-79.599870	 160.182500	 6.652359	-72.819490	 6.756463	-51.686590	 82.804180	 56.668360	-2.385833	 28.452760	 0.000004	 63.073640	-75.470690	-125.375100	-20.385570	-75.490250	-14.774830	 75.456460	 80.085270	-67.128190	 2.384659	 28.388700	-0.000001	 0.585534	 16.600600	 0.212701	-1.075361	 25.580690	 0.555565	-4.100502	-5.910826	 2.172075	-96.301800	 72.093570	 159.751800	 8.913756	 4.980620	-46.146950	-4.447094	 9.111746	-30.658480	-36.316170	-40.124830	-26.683960	-2.027600	 6.559038	 9.033609	-5.188889	 0.308190	 3.541030	-5.234859	 0.342567	 0.430617	-1.175121	-0.423119	-2.286996	-3.331541	-8.971916	-2.955966	 96.047260	 65.413300	-162.069500	-7.815177	 6.884449	 56.323940	-6.371209	 0.677615	 27.883730	 15.086200	-37.964130	 20.870160	 1.803333	 3.979147	-15.098590	 4.898592	 3.004813	-9.310344	 5.224449	 0.395017	 2.014677
-0.037674	 0.257233	 1.035112	 1.474821	 28.949910	-4.730993	-20.880780	-76.543890	 161.996000	 6.306399	-70.639880	 6.345977	-48.163140	 82.390270	 52.647190	-2.385833	 28.452750	 0.000004	 52.173160	-73.958570	-136.345800	-18.513530	-73.232040	-12.818060	 71.796980	 80.146950	-63.249440	 2.384659	 28.388700	-0.000001	 0.585686	 16.919470	 0.029867	-0.741795	 25.914670	 0.091132	-4.184428	-7.339578	 1.898487	-94.625690	 74.692860	 160.463900	 10.391160	 9.397213	-48.436430	-3.952785	 8.824690	-30.743320	-37.654060	-40.442440	-28.300440	-2.027600	 6.559038	 9.033609	-5.188889	 0.308190	 3.541030	-5.234859	 0.342567	 0.430617	-1.410931	-6.583745	-2.254065	-3.329346	-3.066322	-2.507435	 95.186290	 67.079530	-162.919800	-9.116010	 9.537855	 56.881630	-6.765460	 0.492373	 29.056900	 15.319710	-38.374220	 21.606280	 1.803333	 3.979147	-15.098590	 4.898592	 3.004813	-9.310344	 5.224449	 0.395017	 2.014677
-0.034658	 0.255545	 1.052874	 1.362269	 27.237490	-3.979528	-19.863830	-73.039320	 163.462200	 6.041785	-68.078640	 6.060760	-43.767990	 81.907580	 47.676750	-2.385833	 28.452750	 0.000004	 42.510710	-71.563070	-146.043300	-15.659850	-70.662980	-9.932627	 67.979680	 80.106770	-59.583370	 2.384659	 28.388700	-0.000001	 0.551178	 17.076640	-0.219644	-0.442143	 26.110840	-0.403388	-4.257677	-8.803397	 1.655361	-92.916980	 77.074480	 161.157000	 12.513670	 13.379140	-50.616370	-3.366884	 8.578680	-31.123290	-38.539460	-40.655830	-29.892720	-2.027600	 6.559038	 9.033609	-5.188889	 0.308190	 3.541030	-5.234859	 0.342567	 0.430617	-1.661244	-12.955020	-2.534464	-3.358865	 2.969842	-1.899711	 94.308810	 68.801260	-163.793000	-10.806670	 12.186630	 57.099950	-7.117748	 0.319718	 30.919140	 15.381620	-38.783380	 22.050250	 1.803333	 3.979147	-15.098590	 4.898592	 3.004813	-9.310344	 5.224449	 0.395017	 2.014677
-0.029683	 0.250887	 1.074410	 1.805222	 25.754550	-3.357934	-18.189660	-69.400640	 165.819500	 5.800676	-64.772760	 5.575188	-36.590930	 81.375470	 40.039880	-2.385833	 28.452750	 0.000004	 34.928230	-68.345150	-153.353100	-12.738570	-67.419940	-7.016336	 63.735270	 79.688570	-55.444990	 2.384659	 28.388700	-0.000001	 0.602512	 16.314940	-0.864822	-0.363117	 26.012800	-0.932747	-4.262623	-10.321010	 1.185723	-93.757350	 75.571580	 162.910800	 14.571990	 14.632970	-49.344600	-2.432333	 8.736773	-33.462760	-38.038410	-40.296550	-31.342290	-2.027600	 6.559038	 9.033609	-5.188889	 0.308190	 3.541030	-5.234859	 0.342567	 0.430617	-1.668016	-14.352820	-1.278182	-3.389312	 4.416194	-2.514869	 93.827100	 69.509580	-164.633300	-12.699890	 14.546390	 55.375010	-7.505982	 0.098867	 34.175760	 14.948650	-38.735230	 22.162840	 1.803333	 3.979147	-15.098590	 4.898592	 3.004813	-9.310344	 5.224449	 0.395017	 2.014677
-0.025603	 0.245368	 1.095111	 2.111979	 24.574120	-2.846721	-17.581810	-65.926540	 167.035200	 5.344666	-61.423850	 5.063287	-30.908520	 80.564080	 33.905660	-2.385833	 28.452750	 0.000004	 29.721670	-65.147560	-158.320400	-10.621660	-64.043910	-4.925951	 58.171940	 79.207250	-50.051010	 2.384659	 28.388700	-0.000001	 0.563007	 15.269620	-1.155486	-0.140486	 25.804960	-1.350111	-4.332318	-11.591690	 0.862978	-94.193630	 74.475030	 164.139200	 16.580300	 15.468830	-47.819380	-1.530287	 8.911642	-35.990040	-36.920040	-39.966650	-31.606810	-2.027600	 6.559038	 9.033609	-5.188889	 0.308190	 3.541030	-5.234859	 0.342567	 0.430617	-1.737924	-14.980330	-0.989828	-3.341392	 5.181898	-2.490664	 93.881410	 68.479900	-165.703700	-14.258960	 15.201220	 52.884690	-7.752289	-0.078608	 37.958150	 14.172260	-38.258880	 22.123750	 1.803333	 3.979147	-15.098590	 4.898592	 3.004813	-9.310344	 5.224449	 0.395017	 2.014677
-0.021954	 0.237451	 1.120044	 2.406457	 23.198200	-2.343015	-16.926870	-61.586650	 168.358400	 4.874445	-57.112820	 4.446785	-25.864770	 79.327710	 28.323180	-2.385833	 28.452750	 0.000004	 24.908730	-61.061940	-162.876300	-8.652692	-59.656080	-3.027033	 50.691930	 78.523140	-42.828170	 2.384659	 28.388700	-0.000001	 0.560743	 13.735660	-1.209294	 0.272619	 25.397840	-1.794320	-4.450105	-12.940390	 0.493803	-94.556620	 73.203030	 165.456900	 18.841410	 16.193840	-46.057070	-0.444696	 9.064986	-39.144440	-35.110080	-39.512160	-31.078010	-2.027600	 6.559038	 9.033609	-5.188889	 0.308190	 3.541030	-5.234859	 0.342567	 0.430617	-1.822887	-15.252370	-0.897220	-3.276895	 5.720065	-2.316591	 93.991630	 66.648160	-167.060500	-15.791130	 15.266080	 49.482930	-7.992373	-0.315031	 42.743890	 13.056850	-37.455160	 21.876930	 1.803333	 3.979147	-15.098590	 4.898592	 3.004813	-9.310344	 5.224449	 0.395017	 2.014677
-0.019038	 0.227694	 1.146425	 2.704268	 21.790030	-1.853070	-16.421170	-56.786890	 169.486200	 4.381480	-52.172120	 3.793081	-21.745000	 77.825600	 23.715800	-2.385833	 28.452750	 0.000004	 21.001390	-56.450020	-166.559500	-7.046805	-54.550790	-1.548416	 42.960670	 77.592960	-35.346910	 2.384659	 28.388700	-0.000001	 0.669886	 11.841040	-1.118741	 0.810345	 24.726120	-2.267754	-4.570899	-14.070020	 0.105035	-94.823240	 71.787890	 166.776600	 20.906460	 16.666740	-44.373630	 0.681329	 9.141945	-42.522850	-32.811740	-38.920670	-29.691050	-2.027600	 6.559038	 9.033609	-5.188889	 0.308190	 3.541030	-5.234859	 0.342567	 0.430617	-1.855768	-15.071760	-0.673581	-3.238253	 5.948466	-2.277323	 93.923770	 64.879160	-168.476500	-17.067910	 15.187240	 45.961110	-8.222901	-0.628616	 47.732510	 11.795610	-36.530620	 21.347710	 1.803333	 3.979147	-15.098590	 4.898592	 3.004813	-9.310344	 5.224449	 0.395017	 2.014677
